<?xml version="1.0" encoding="UTF-8"?>
<!DOCTYPE svg PUBLIC "-//W3C//DTD SVG 1.1//EN" "http://www.w3.org/Graphics/SVG/1.1/DTD/svg11.dtd">
<svg version="1.1" xmlns="http://www.w3.org/2000/svg" xmlns:xlink="http://www.w3.org/1999/xlink" x="0px" y="0px" width="340.939" height="82.616" viewBox="0, 0, 340.939, 82.616">
  <g id="Layer 1">
    <path d="M43.621,36.882 C45.093,36.882 45.925,37.714 45.925,39.25 L47.781,81.04 L42.149,81.04 L40.549,41.554 L39.205,41.554 L29.35,74.129 C29.03,75.344 28.198,76.049 26.918,76.049 L21.863,76.049 C20.519,76.049 19.687,75.344 19.303,74.129 L9.448,41.554 L8.168,41.554 L6.632,81.04 L1,81.04 L2.728,39.25 C2.792,37.714 3.624,36.882 5.096,36.882 L11.496,36.882 C12.775,36.882 13.479,37.523 13.863,38.802 L22.119,65.745 C22.759,67.729 23.206,69.648 23.783,71.696 L24.934,71.696 C25.511,69.648 25.958,67.729 26.599,65.617 L34.854,38.802 C35.174,37.523 36.006,36.882 37.286,36.882 z" fill="#E8292A"/>
    <path d="M77.863,44.817 C77.479,43.666 77.094,42.385 76.775,41.234 L74.983,41.234 L73.895,44.817 L68.328,62.353 L83.43,62.353 z M66.792,67.216 L62.44,81.039 L56.616,81.039 L70.823,38.418 C71.079,37.458 71.911,36.881 72.935,36.881 L78.823,36.881 C79.846,36.881 80.678,37.458 80.934,38.418 L95.141,81.039 L89.318,81.039 L84.967,67.216 z" fill="#E8292A"/>
    <path d="M138.854,78.799 C138.854,80.272 138.086,81.039 136.678,81.039 L131.175,81.039 C129.895,81.039 129.191,80.463 128.679,79.247 L113.768,47.953 C113,46.29 111.784,43.922 111.271,42.13 L110.248,42.13 C110.439,44.049 110.504,46.033 110.504,47.953 L110.504,81.039 L104.872,81.039 L104.872,39.122 C104.872,37.65 105.641,36.882 107.112,36.882 L112.424,36.882 C113.705,36.882 114.408,37.458 114.92,38.674 L129.383,69.2 C130.279,70.992 131.431,73.424 132.391,75.6 L133.479,75.6 C133.351,73.296 133.287,71.12 133.287,68.88 L133.287,36.882 L138.854,36.882 z" fill="#E8292A"/>
    <path d="M159.143,76.56 C162.023,76.623 165.414,76.688 169.254,76.688 C177.702,76.688 180.581,72.336 180.581,58.961 C180.581,45.586 177.702,41.17 169.254,41.17 C165.351,41.17 162.151,41.234 159.143,41.298 z M153.511,36.882 C158.119,36.562 163.174,36.307 169.254,36.307 C181.925,36.307 186.469,41.874 186.469,58.961 C186.469,76.048 181.925,81.616 169.254,81.616 C163.174,81.616 158.119,81.36 153.511,81.039 z" fill="#E8292A"/>
    <path d="M215.59,44.817 C215.206,43.666 214.821,42.385 214.502,41.234 L212.71,41.234 L211.622,44.817 L206.055,62.353 L221.157,62.353 z M204.519,67.216 L200.167,81.039 L194.343,81.039 L208.55,38.418 C208.806,37.458 209.638,36.881 210.662,36.881 L216.55,36.881 C217.573,36.881 218.405,37.458 218.661,38.418 L232.868,81.039 L227.045,81.039 L222.694,67.216 z" fill="#E8292A"/>
    <path d="M257.701,57.746 C264.228,57.682 266.404,55.89 266.404,49.362 C266.404,42.898 264.228,41.17 257.701,41.17 C253.925,41.17 250.661,41.17 248.165,41.235 L248.165,57.746 z M267.683,81.04 L263.78,67.217 C262.628,63.89 260.837,62.609 257.892,62.609 C253.797,62.609 250.597,62.545 248.165,62.545 L248.165,81.04 L242.597,81.04 L242.597,36.882 C247.397,36.371 250.725,36.307 257.829,36.307 C268.068,36.307 272.099,39.122 272.099,49.041 C272.099,56.21 269.796,59.666 263.972,60.434 L263.972,60.754 C266.148,61.329 268.452,63.377 269.412,67.089 L273.699,81.04 z" fill="#E8292A"/>
    <path d="M285.671,36.882 L291.303,36.882 L291.303,81.04 L285.671,81.04 z" fill="#E8292A"/>
    <path d="M339.939,78.799 C339.939,80.272 339.171,81.039 337.763,81.039 L332.26,81.039 C330.98,81.039 330.276,80.463 329.764,79.247 L314.853,47.953 C314.085,46.29 312.87,43.922 312.357,42.13 L311.334,42.13 C311.525,44.049 311.589,46.033 311.589,47.953 L311.589,81.039 L305.958,81.039 L305.958,39.122 C305.958,37.65 306.726,36.882 308.198,36.882 L313.509,36.882 C314.79,36.882 315.493,37.458 316.005,38.674 L330.468,69.2 C331.364,70.992 332.516,73.424 333.476,75.6 L334.564,75.6 C334.436,73.296 334.372,71.12 334.372,68.88 L334.372,36.882 L339.939,36.882 z" fill="#E8292A"/>
    <path d="M9.192,20.255 C12.385,20.255 13.409,19.604 13.409,16.782 C13.409,13.62 12.323,12.783 9.005,12.752 L4.633,12.752 L4.633,20.225 z M8.975,10.364 C11.889,10.364 12.913,9.682 12.913,6.953 C12.913,4.256 11.796,3.636 8.572,3.636 L4.633,3.636 L4.633,10.364 z M12.261,11.605 C15.455,11.884 16.54,13.899 16.54,17.31 C16.54,21.713 14.587,22.891 9.657,22.891 C5.967,22.891 4.076,22.859 1.595,22.643 L1.595,1.248 C3.796,1.031 5.503,1 8.727,1 C13.998,1 15.889,2.179 15.889,6.582 C15.889,9.651 14.835,11.233 12.261,11.481 z" fill="#E8292A"/>
    <path d="M34.395,5.372 C34.241,4.814 34.023,4.194 33.868,3.636 L33.031,3.636 L32.535,5.372 L30.024,13.496 L36.907,13.496 z M29.186,16.193 L27.202,22.643 L24.04,22.643 L30.737,2.086 C30.891,1.559 31.326,1.248 31.883,1.248 L35.046,1.248 C35.574,1.248 36.039,1.559 36.163,2.086 L42.891,22.643 L39.698,22.643 L37.713,16.193 z" fill="#E8292A"/>
    <path d="M68,21.434 C68,22.24 67.597,22.643 66.853,22.643 L63.907,22.643 C63.226,22.643 62.853,22.332 62.574,21.682 L55.907,7.109 C55.536,6.303 54.885,5.032 54.637,4.132 L54.202,4.132 C54.326,5.124 54.357,6.148 54.357,7.109 L54.357,22.643 L51.257,22.643 L51.257,2.458 C51.257,1.652 51.69,1.248 52.435,1.248 L55.288,1.248 C55.97,1.248 56.342,1.559 56.651,2.21 L63.132,16.411 C63.535,17.279 64.155,18.519 64.62,19.604 L65.085,19.604 C64.992,18.489 64.931,17.403 64.931,16.287 L64.931,1.248 L68,1.248 z" fill="#E8292A"/>
    <path d="M81.576,12.752 C81.7,13.496 81.793,14.24 81.793,14.953 L81.793,22.643 L78.692,22.643 L78.692,1.248 L81.793,1.248 L81.793,7.822 C81.793,8.659 81.731,9.465 81.576,10.24 L83.994,10.24 L90.288,1.248 L93.668,1.248 L87.622,9.992 C87.219,10.581 86.909,10.922 86.319,11.481 L86.319,11.573 C86.94,12.101 87.436,12.658 87.807,13.186 L94.071,22.643 L90.63,22.643 L83.994,12.752 z" fill="#E8292A"/>
  </g>
  <defs/>
</svg>
